#tb 0: 1/25
#media_type 0: video
#codec_id 0: rawvideo
#dimensions 0: 352x288
#sar 0: 0/1
0,          0,          0,        1,   608256, 0x60865484
0,          1,          1,        1,   608256, 0x3c9bad01
0,          2,          2,        1,   608256, 0x809b6b5d
0,          3,          3,        1,   608256, 0x4d873004
0,          4,          4,        1,   608256, 0xff1651c8
0,          5,          5,        1,   608256, 0x48fd0353
0,          6,          6,        1,   608256, 0x184ce147
0,          7,          7,        1,   608256, 0x9802722f
0,          8,          8,        1,   608256, 0x9413376e
0,          9,          9,        1,   608256, 0xfbb733e9
0,         10,         10,        1,   608256, 0x573ae5a4
0,         11,         11,        1,   608256, 0x8697c4a4
0,         12,         12,        1,   608256, 0xc7b364c1
0,         13,         13,        1,   608256, 0x512770ec
0,         14,         14,        1,   608256, 0x2adee98f
0,         15,         15,        1,   608256, 0xcfb7d642
0,         16,         16,        1,   608256, 0xc303accb
0,         17,         17,        1,   608256, 0xc738fee1
0,         18,         18,        1,   608256, 0xd28c5669
0,         19,         19,        1,   608256, 0xd3ce495a
0,         20,         20,        1,   608256, 0x34fe368d
0,         21,         21,        1,   608256, 0xbafe49a4
0,         22,         22,        1,   608256, 0x68da4a93
0,         23,         23,        1,   608256, 0xfd632bde
0,         24,         24,        1,   608256, 0x92275713
0,         25,         25,        1,   608256, 0xcb569e86
0,         26,         26,        1,   608256, 0x84674f8a
0,         27,         27,        1,   608256, 0xd8b7f0d5
0,         28,         28,        1,   608256, 0xe3e6f966
0,         29,         29,        1,   608256, 0x084d3d4c
0,         30,         30,        1,   608256, 0x6e9c5c63
0,         31,         31,        1,   608256, 0x71c71484
0,         32,         32,        1,   608256, 0xa89dedd1
0,         33,         33,        1,   608256, 0x4c481ca6
0,         34,         34,        1,   608256, 0xa52bc63b
0,         35,         35,        1,   608256, 0x59f0efa5
0,         36,         36,        1,   608256, 0xafb82d42
0,         37,         37,        1,   608256, 0x887b8458
0,         38,         38,        1,   608256, 0x8a2c6984
0,         39,         39,        1,   608256, 0xe75e4737
0,         40,         40,        1,   608256, 0xe41ed81c
0,         41,         41,        1,   608256, 0xbf816b8d
0,         42,         42,        1,   608256, 0x8cd1af16
0,         43,         43,        1,   608256, 0x31883468
0,         44,         44,        1,   608256, 0x380c2bf8
0,         45,         45,        1,   608256, 0x25e7483e
0,         46,         46,        1,   608256, 0xe73edd67
0,         47,         47,        1,   608256, 0x3e9670ef
0,         48,         48,        1,   608256, 0xd5b871fd
0,         49,         49,        1,   608256, 0xe075789f
